<?xml version="1.0" encoding="utf-8"?>
<!-- Generator: Adobe Illustrator 16.0.0, SVG Export Plug-In . SVG Version: 6.00 Build 0)  -->
<!DOCTYPE svg PUBLIC "-//W3C//DTD SVG 1.1//EN" "http://www.w3.org/Graphics/SVG/1.1/DTD/svg11.dtd">
<svg version="1.1" id="Layer_1" xmlns="http://www.w3.org/2000/svg" xmlns:xlink="http://www.w3.org/1999/xlink" x="0px" y="0px"
	 width="157.354px" height="13.125px" viewBox="0 0 157.354 13.125" enable-background="new 0 0 157.354 13.125"
	 xml:space="preserve">
<g>
	<path fill="#261D1A" d="M2.236,7.103c0,1.254,0.277,2.244,0.83,2.971c0.555,0.727,1.364,1.09,2.431,1.09
		c0.551,0,1.22-0.146,2.009-0.439c0.787-0.293,1.211-0.439,1.27-0.439c0.34,0,0.51,0.17,0.51,0.51c0,0.182-0.111,0.396-0.334,0.642
		s-0.583,0.495-1.081,0.747c-0.809,0.404-1.646,0.606-2.514,0.606H5.084c-1.447,0-2.602-0.489-3.463-1.468
		c-0.428-0.48-0.75-1.093-0.967-1.837S0.329,7.953,0.329,7.121V6.839c0.006-3.064,1.034-5.083,3.085-6.056
		C4.105,0.456,4.8,0.292,5.497,0.292h0.255c0.779,0,1.495,0.196,2.148,0.589s0.98,0.809,0.98,1.248S8.696,2.788,8.327,2.788
		c-0.064,0-0.424-0.129-1.077-0.387S6.007,2.014,5.479,2.014S4.47,2.13,4.033,2.361s-0.771,0.535-1.006,0.91
		C2.5,4.115,2.236,5.392,2.236,7.103z"/>
	<path fill="#261D1A" d="M20.188,6.04v0.598c0,0.908-0.111,1.768-0.334,2.58s-0.545,1.468-0.967,1.969s-0.948,0.91-1.577,1.226
		c-0.631,0.316-1.273,0.475-1.93,0.475h-0.589c-0.621-0.006-1.23-0.144-1.828-0.413c-1.219-0.557-2.048-1.632-2.487-3.226
		c-0.188-0.68-0.281-1.491-0.281-2.435l0.009-0.193c0.006-0.861,0.12-1.711,0.343-2.549c0.457-1.693,1.33-2.836,2.619-3.428
		c0.592-0.27,1.23-0.404,1.916-0.404h0.387c0.609,0,1.228,0.135,1.854,0.404c1.195,0.521,2.03,1.518,2.505,2.988
		C20.068,4.37,20.188,5.172,20.188,6.04z M11.953,6.426v0.58c0,0.668,0.076,1.283,0.229,1.846c0.293,1.066,0.788,1.799,1.485,2.197
		c0.41,0.24,0.855,0.36,1.336,0.36h0.272c0.469,0,0.891-0.123,1.266-0.369c1.125-0.732,1.69-2.194,1.696-4.386v-0.58
		c0-1.301-0.258-2.364-0.773-3.19c-0.229-0.369-0.526-0.665-0.892-0.888c-0.367-0.223-0.746-0.334-1.139-0.334h-0.404
		c-0.457,0-0.885,0.129-1.283,0.387s-0.712,0.56-0.94,0.905s-0.428,0.825-0.598,1.437S11.953,5.682,11.953,6.426z"/>
	<path fill="#261D1A" d="M33.448,11.55c0,0.416-0.196,0.624-0.589,0.624c-0.129,0-0.292-0.105-0.487-0.316
		c-0.197-0.211-0.336-0.533-0.418-0.967s-0.175-1.654-0.277-3.661s-0.231-3.01-0.387-3.01s-0.641,0.923-1.459,2.769
		c-0.816,1.846-1.293,2.868-1.428,3.067c-0.264,0.387-0.554,0.58-0.87,0.58s-0.568-0.158-0.756-0.475s-0.439-0.891-0.756-1.723
		c-1.066-2.795-1.714-4.192-1.942-4.192c-0.135,0-0.345,1.1-0.629,3.3s-0.432,3.327-0.443,3.379
		c-0.182,0.697-0.416,1.046-0.703,1.046c-0.375,0-0.562-0.208-0.562-0.624c0-0.135,0.031-0.596,0.092-1.384
		c0.062-0.788,0.102-1.441,0.119-1.96s0.049-1.201,0.092-2.048c0.045-0.847,0.066-2.029,0.066-3.546c0-0.422,0.073-0.759,0.22-1.011
		c0.205-0.357,0.504-0.536,0.896-0.536s0.771,0.259,1.138,0.778s0.979,1.617,1.838,3.296c0.857,1.679,1.323,2.518,1.396,2.518
		s0.52-0.778,1.336-2.333c0.818-1.556,1.361-2.544,1.631-2.966c0.557-0.867,1.061-1.301,1.512-1.301
		c0.557,0,0.917,0.233,1.081,0.699s0.246,1.739,0.246,3.819l-0.062,3.489c0,0.656,0.018,1.232,0.053,1.727
		S33.448,11.404,33.448,11.55z"/>
	<path fill="#261D1A" d="M44.94,6.04v0.598c0,0.908-0.111,1.768-0.334,2.58s-0.545,1.468-0.967,1.969s-0.948,0.91-1.577,1.226
		c-0.631,0.316-1.273,0.475-1.93,0.475h-0.589c-0.621-0.006-1.23-0.144-1.828-0.413c-1.219-0.557-2.048-1.632-2.487-3.226
		c-0.188-0.68-0.281-1.491-0.281-2.435l0.009-0.193c0.006-0.861,0.12-1.711,0.343-2.549c0.457-1.693,1.33-2.836,2.619-3.428
		c0.592-0.27,1.23-0.404,1.916-0.404h0.387c0.609,0,1.228,0.135,1.854,0.404c1.195,0.521,2.03,1.518,2.505,2.988
		C44.82,4.37,44.94,5.172,44.94,6.04z M36.705,6.426v0.58c0,0.668,0.076,1.283,0.229,1.846c0.293,1.066,0.788,1.799,1.485,2.197
		c0.41,0.24,0.855,0.36,1.336,0.36h0.272c0.469,0,0.891-0.123,1.266-0.369c1.125-0.732,1.69-2.194,1.696-4.386v-0.58
		c0-1.301-0.258-2.364-0.773-3.19c-0.229-0.369-0.526-0.665-0.892-0.888c-0.367-0.223-0.746-0.334-1.139-0.334h-0.404
		c-0.457,0-0.885,0.129-1.283,0.387s-0.712,0.56-0.94,0.905S37.13,3.779,36.96,4.392S36.705,5.682,36.705,6.426z"/>
	<path fill="#261D1A" d="M55.01,12.376c-0.108,0.223-0.361,0.334-0.76,0.334s-0.639-0.083-0.721-0.251
		c-0.082-0.166-0.123-0.42-0.123-0.76s0.021-0.855,0.066-1.547c0.043-0.691,0.065-1.611,0.065-2.76l0.035-1.564
		c0.012-0.293,0.018-0.498,0.018-0.615V4.721c0-1.254-0.132-2.051-0.396-2.391c-0.164-0.211-0.768-0.316-1.811-0.316
		c-0.521,0-0.878-0.054-1.068-0.163s-0.285-0.303-0.285-0.584V1.118c0-0.299,0.284-0.489,0.853-0.571
		c1.107-0.158,2.669-0.237,4.685-0.237h1.749c0.68,0,1.123,0.044,1.331,0.132s0.312,0.277,0.312,0.567s-0.155,0.5-0.466,0.628
		c-0.146,0.059-0.574,0.129-1.283,0.211s-1.16,0.226-1.354,0.431c-0.34,0.369-0.51,1.339-0.51,2.909L55.34,5.635l-0.009,0.22
		l-0.026,1.336c-0.006,0.146-0.009,0.296-0.009,0.448l-0.097,2.593l-0.018,0.404l-0.009,0.606
		C55.173,11.776,55.118,12.154,55.01,12.376z"/>
	<path fill="#261D1A" d="M64.213,11.251c0.492,0,0.94-0.148,1.345-0.444s0.704-0.721,0.901-1.274
		c0.195-0.554,0.342-1.945,0.439-4.175c0.096-2.229,0.195-3.573,0.299-4.03c0.102-0.457,0.342-0.686,0.721-0.686
		c0.377,0,0.602,0.056,0.672,0.167s0.105,0.39,0.105,0.835V2.55l-0.009,0.308L68.669,4.37c0,2.543-0.025,4.132-0.075,4.768
		s-0.174,1.156-0.373,1.56c-0.305,0.604-0.805,1.077-1.498,1.42c-0.695,0.342-1.584,0.514-2.668,0.514h-0.308
		c-1.506,0-2.602-0.562-3.287-1.688c-0.258-0.428-0.438-0.954-0.54-1.578c-0.104-0.624-0.154-1.651-0.154-3.081l-0.044-2.32
		l-0.044-1.635L59.66,1.803V1.54c0-0.352,0.049-0.57,0.145-0.655c0.098-0.085,0.301-0.127,0.611-0.127
		c0.416,0,0.697,0.311,0.844,0.932c0.193,0.82,0.29,2.402,0.29,4.746l0.018,1.222c0,1.852,0.51,2.997,1.529,3.437
		C63.349,11.199,63.721,11.251,64.213,11.251z"/>
	<path fill="#261D1A" d="M82.417,0.458h0.193c0.322,0,0.483,0.097,0.483,0.29v0.158c0,0.152-0.533,1.365-1.6,3.639
		s-1.665,3.601-1.798,3.981c-0.131,0.381-0.275,1.1-0.43,2.158c-0.156,1.058-0.269,1.674-0.339,1.85s-0.275,0.264-0.615,0.264
		s-0.551-0.063-0.633-0.188c-0.082-0.127-0.123-0.292-0.123-0.497s0.018-0.478,0.053-0.817l0.053-0.431
		c0.006-0.023,0.03-0.267,0.075-0.729c0.043-0.463,0.065-0.916,0.065-1.358s-0.118-0.913-0.356-1.411
		c-0.236-0.498-0.671-1.337-1.301-2.518s-1.128-2.079-1.494-2.694s-0.549-0.981-0.549-1.099c0-0.246,0.235-0.369,0.707-0.369
		s0.869,0.211,1.191,0.633c0.445,0.586,0.965,1.482,1.561,2.689c0.594,1.207,0.921,1.811,0.979,1.811
		c0.199,0,0.697-0.706,1.494-2.118c0.17-0.305,0.416-0.792,0.738-1.463s0.551-1.094,0.686-1.27
		C81.723,0.628,82.042,0.458,82.417,0.458z"/>
	<path fill="#261D1A" d="M89.863,7.103c0,1.254,0.277,2.244,0.83,2.971c0.555,0.727,1.364,1.09,2.431,1.09
		c0.551,0,1.22-0.146,2.009-0.439c0.787-0.293,1.211-0.439,1.27-0.439c0.34,0,0.51,0.17,0.51,0.51c0,0.182-0.111,0.396-0.334,0.642
		s-0.583,0.495-1.081,0.747c-0.809,0.404-1.646,0.606-2.514,0.606h-0.272c-1.447,0-2.602-0.489-3.463-1.468
		c-0.428-0.48-0.75-1.093-0.967-1.837s-0.325-1.532-0.325-2.364V6.839c0.006-3.064,1.034-5.083,3.085-6.056
		c0.691-0.328,1.386-0.492,2.083-0.492h0.255c0.779,0,1.495,0.196,2.148,0.589s0.98,0.809,0.98,1.248s-0.185,0.659-0.554,0.659
		c-0.064,0-0.424-0.129-1.077-0.387s-1.243-0.387-1.771-0.387s-1.01,0.116-1.446,0.347s-0.771,0.535-1.006,0.91
		C90.127,4.115,89.863,5.392,89.863,7.103z"/>
	<path fill="#261D1A" d="M107.815,6.04v0.598c0,0.908-0.111,1.768-0.334,2.58s-0.545,1.468-0.967,1.969s-0.948,0.91-1.577,1.226
		c-0.631,0.316-1.273,0.475-1.93,0.475h-0.589c-0.621-0.006-1.23-0.144-1.828-0.413c-1.219-0.557-2.048-1.632-2.487-3.226
		c-0.188-0.68-0.281-1.491-0.281-2.435l0.009-0.193c0.006-0.861,0.12-1.711,0.343-2.549c0.457-1.693,1.33-2.836,2.619-3.428
		c0.592-0.27,1.23-0.404,1.916-0.404h0.387c0.609,0,1.228,0.135,1.854,0.404c1.195,0.521,2.03,1.518,2.505,2.988
		C107.695,4.37,107.815,5.172,107.815,6.04z M99.58,6.426v0.58c0,0.668,0.076,1.283,0.229,1.846
		c0.293,1.066,0.788,1.799,1.485,2.197c0.41,0.24,0.855,0.36,1.336,0.36h0.272c0.469,0,0.891-0.123,1.266-0.369
		c1.125-0.732,1.69-2.194,1.696-4.386v-0.58c0-1.301-0.258-2.364-0.773-3.19c-0.229-0.369-0.526-0.665-0.892-0.888
		c-0.367-0.223-0.746-0.334-1.139-0.334h-0.404c-0.457,0-0.885,0.129-1.283,0.387s-0.712,0.56-0.94,0.905s-0.428,0.825-0.598,1.437
		S99.58,5.682,99.58,6.426z"/>
	<path fill="#261D1A" d="M121.075,11.55c0,0.416-0.196,0.624-0.589,0.624c-0.129,0-0.292-0.105-0.487-0.316
		c-0.197-0.211-0.336-0.533-0.418-0.967s-0.175-1.654-0.277-3.661s-0.231-3.01-0.387-3.01s-0.641,0.923-1.459,2.769
		c-0.816,1.846-1.293,2.868-1.428,3.067c-0.264,0.387-0.554,0.58-0.87,0.58s-0.568-0.158-0.756-0.475s-0.439-0.891-0.756-1.723
		c-1.066-2.795-1.714-4.192-1.942-4.192c-0.135,0-0.345,1.1-0.629,3.3s-0.432,3.327-0.443,3.379
		c-0.182,0.697-0.416,1.046-0.703,1.046c-0.375,0-0.562-0.208-0.562-0.624c0-0.135,0.031-0.596,0.092-1.384
		c0.062-0.788,0.102-1.441,0.119-1.96s0.049-1.201,0.092-2.048c0.045-0.847,0.066-2.029,0.066-3.546c0-0.422,0.073-0.759,0.22-1.011
		c0.205-0.357,0.504-0.536,0.896-0.536s0.771,0.259,1.138,0.778s0.979,1.617,1.838,3.296c0.857,1.679,1.323,2.518,1.396,2.518
		s0.52-0.778,1.336-2.333c0.818-1.556,1.361-2.544,1.631-2.966c0.557-0.867,1.061-1.301,1.512-1.301
		c0.557,0,0.917,0.233,1.081,0.699s0.246,1.739,0.246,3.819l-0.062,3.489c0,0.656,0.018,1.232,0.053,1.727
		S121.075,11.404,121.075,11.55z"/>
	<path fill="#261D1A" d="M132.567,6.04v0.598c0,0.908-0.111,1.768-0.334,2.58s-0.545,1.468-0.967,1.969s-0.948,0.91-1.577,1.226
		c-0.631,0.316-1.273,0.475-1.93,0.475h-0.589c-0.621-0.006-1.23-0.144-1.828-0.413c-1.219-0.557-2.048-1.632-2.487-3.226
		c-0.188-0.68-0.281-1.491-0.281-2.435l0.009-0.193c0.006-0.861,0.12-1.711,0.343-2.549c0.457-1.693,1.33-2.836,2.619-3.428
		c0.592-0.27,1.23-0.404,1.916-0.404h0.387c0.609,0,1.228,0.135,1.854,0.404c1.195,0.521,2.03,1.518,2.505,2.988
		C132.447,4.37,132.567,5.172,132.567,6.04z M124.332,6.426v0.58c0,0.668,0.076,1.283,0.229,1.846
		c0.293,1.066,0.788,1.799,1.485,2.197c0.41,0.24,0.855,0.36,1.336,0.36h0.272c0.469,0,0.891-0.123,1.266-0.369
		c1.125-0.732,1.69-2.194,1.696-4.386v-0.58c0-1.301-0.258-2.364-0.773-3.19c-0.229-0.369-0.526-0.665-0.892-0.888
		c-0.367-0.223-0.746-0.334-1.139-0.334h-0.404c-0.457,0-0.885,0.129-1.283,0.387s-0.712,0.56-0.94,0.905s-0.428,0.825-0.598,1.437
		S124.332,5.682,124.332,6.426z"/>
	<path fill="#261D1A" d="M146.096,0.458h0.193c0.322,0,0.483,0.097,0.483,0.29v0.158c0,0.152-0.533,1.365-1.6,3.639
		s-1.665,3.601-1.798,3.981c-0.131,0.381-0.275,1.1-0.43,2.158c-0.156,1.058-0.269,1.674-0.339,1.85s-0.275,0.264-0.615,0.264
		s-0.551-0.063-0.633-0.188c-0.082-0.127-0.123-0.292-0.123-0.497s0.018-0.478,0.053-0.817l0.053-0.431
		c0.006-0.023,0.03-0.267,0.075-0.729c0.043-0.463,0.065-0.916,0.065-1.358s-0.118-0.913-0.356-1.411
		c-0.236-0.498-0.671-1.337-1.301-2.518s-1.128-2.079-1.494-2.694s-0.549-0.981-0.549-1.099c0-0.246,0.235-0.369,0.707-0.369
		s0.869,0.211,1.191,0.633c0.445,0.586,0.965,1.482,1.561,2.689c0.594,1.207,0.921,1.811,0.979,1.811
		c0.199,0,0.697-0.706,1.494-2.118c0.17-0.305,0.416-0.792,0.738-1.463s0.551-1.094,0.686-1.27
		C145.401,0.628,145.721,0.458,146.096,0.458z"/>
	<path fill="#261D1A" d="M157.025,6.04v0.598c0,0.908-0.111,1.768-0.334,2.58s-0.545,1.468-0.967,1.969s-0.948,0.91-1.577,1.226
		c-0.631,0.316-1.273,0.475-1.93,0.475h-0.589c-0.621-0.006-1.23-0.144-1.828-0.413c-1.219-0.557-2.048-1.632-2.487-3.226
		c-0.188-0.68-0.281-1.491-0.281-2.435l0.009-0.193c0.006-0.861,0.12-1.711,0.343-2.549c0.457-1.693,1.33-2.836,2.619-3.428
		c0.592-0.27,1.23-0.404,1.916-0.404h0.387c0.609,0,1.228,0.135,1.854,0.404c1.195,0.521,2.03,1.518,2.505,2.988
		C156.905,4.37,157.025,5.172,157.025,6.04z M148.79,6.426v0.58c0,0.668,0.076,1.283,0.229,1.846
		c0.293,1.066,0.788,1.799,1.485,2.197c0.41,0.24,0.855,0.36,1.336,0.36h0.272c0.469,0,0.891-0.123,1.266-0.369
		c1.125-0.732,1.69-2.194,1.696-4.386v-0.58c0-1.301-0.258-2.364-0.773-3.19c-0.229-0.369-0.526-0.665-0.892-0.888
		c-0.367-0.223-0.746-0.334-1.139-0.334h-0.404c-0.457,0-0.885,0.129-1.283,0.387s-0.712,0.56-0.94,0.905s-0.428,0.825-0.598,1.437
		S148.79,5.682,148.79,6.426z"/>
</g>
</svg>
