<?xml version="1.0" encoding="utf-8"?>
<!-- Generator: Adobe Illustrator 16.0.0, SVG Export Plug-In . SVG Version: 6.00 Build 0)  -->
<!DOCTYPE svg PUBLIC "-//W3C//DTD SVG 1.1//EN" "http://www.w3.org/Graphics/SVG/1.1/DTD/svg11.dtd">
<svg version="1.1" id="Layer_1" xmlns="http://www.w3.org/2000/svg" xmlns:xlink="http://www.w3.org/1999/xlink" x="0px" y="0px"
	 width="258.714px" height="84.596px" viewBox="0 0 258.714 84.596" enable-background="new 0 0 258.714 84.596"
	 xml:space="preserve">
<g>
	<g>
		<polygon fill="#261D1A" points="187.666,40.937 187.666,0 0,0 0,43.658 34.838,43.658 34.838,84.596 258.714,84.596 
			258.714,40.937 		"/>
	</g>
	<g>
		<path fill="#E7C774" d="M14.498,23.038c0,2.787,0.615,4.987,1.846,6.602c1.23,1.615,3.03,2.422,5.4,2.422
			c1.224,0,2.712-0.325,4.463-0.977c1.751-0.651,2.692-0.977,2.822-0.977c0.755,0,1.133,0.378,1.133,1.133
			c0,0.404-0.247,0.879-0.742,1.426s-1.296,1.101-2.402,1.66c-1.797,0.898-3.659,1.348-5.586,1.348h-0.605
			c-3.216,0-5.781-1.087-7.695-3.262c-0.95-1.067-1.667-2.428-2.148-4.082c-0.481-1.653-0.723-3.405-0.723-5.254v-0.625
			c0.013-6.81,2.298-11.295,6.855-13.457c1.536-0.729,3.079-1.094,4.629-1.094h0.566c1.731,0,3.323,0.437,4.775,1.309
			c1.452,0.873,2.178,1.797,2.178,2.773s-0.41,1.465-1.23,1.465c-0.144,0-0.94-0.286-2.393-0.859
			c-1.452-0.573-2.764-0.859-3.936-0.859s-2.243,0.257-3.213,0.771c-0.97,0.515-1.716,1.188-2.236,2.021
			C15.084,16.397,14.498,19.236,14.498,23.038z"/>
		<path fill="#E7C774" d="M56.643,20.674v1.328c0,2.019-0.247,3.929-0.742,5.732c-0.495,1.804-1.211,3.262-2.148,4.375
			s-2.106,2.021-3.506,2.725s-2.829,1.055-4.287,1.055H44.65c-1.38-0.013-2.734-0.319-4.062-0.918
			c-2.708-1.237-4.551-3.626-5.527-7.168c-0.417-1.51-0.625-3.313-0.625-5.41l0.02-0.43c0.013-1.914,0.267-3.802,0.762-5.664
			c1.016-3.763,2.956-6.302,5.82-7.617c1.315-0.599,2.734-0.898,4.258-0.898h0.859c1.354,0,2.728,0.3,4.121,0.898
			c2.656,1.159,4.512,3.373,5.566,6.641C56.376,16.963,56.643,18.748,56.643,20.674z M38.342,21.534v1.289
			c0,1.484,0.169,2.852,0.508,4.102c0.651,2.37,1.751,3.998,3.301,4.883c0.911,0.534,1.901,0.801,2.969,0.801h0.605
			c1.042,0,1.979-0.273,2.812-0.82c2.5-1.627,3.757-4.876,3.77-9.746v-1.289c0-2.891-0.573-5.254-1.719-7.09
			c-0.508-0.82-1.169-1.478-1.982-1.973c-0.813-0.495-1.657-0.742-2.529-0.742h-0.898c-1.016,0-1.966,0.287-2.852,0.859
			c-0.886,0.573-1.582,1.244-2.09,2.012c-0.508,0.769-0.95,1.833-1.328,3.193C38.53,18.373,38.342,19.88,38.342,21.534z"/>
		<path fill="#E7C774" d="M88.35,32.92c0,0.925-0.437,1.387-1.309,1.387c-0.286,0-0.647-0.234-1.084-0.703s-0.745-1.185-0.928-2.148
			c-0.183-0.963-0.388-3.675-0.615-8.135c-0.228-4.459-0.515-6.689-0.859-6.689s-1.426,2.051-3.242,6.152s-2.874,6.374-3.174,6.816
			c-0.586,0.859-1.23,1.289-1.934,1.289s-1.263-0.352-1.68-1.055s-0.977-1.979-1.68-3.828c-2.37-6.211-3.809-9.316-4.316-9.316
			c-0.3,0-0.765,2.445-1.396,7.334c-0.632,4.89-0.96,7.393-0.986,7.51c-0.403,1.55-0.925,2.324-1.562,2.324
			c-0.833,0-1.25-0.462-1.25-1.387c0-0.299,0.068-1.325,0.205-3.076c0.137-1.751,0.225-3.203,0.264-4.355s0.107-2.669,0.205-4.551
			c0.098-1.881,0.146-4.508,0.146-7.881c0-0.938,0.163-1.686,0.488-2.246c0.456-0.794,1.12-1.191,1.992-1.191
			s1.716,0.576,2.529,1.729s2.175,3.594,4.082,7.324s2.942,5.596,3.105,5.596s1.152-1.729,2.969-5.186s3.024-5.654,3.623-6.592
			c1.237-1.927,2.356-2.891,3.359-2.891c1.237,0,2.038,0.518,2.402,1.553s0.547,3.864,0.547,8.486l-0.137,7.754
			c0,1.458,0.039,2.738,0.117,3.838C88.311,31.882,88.35,32.595,88.35,32.92z"/>
		<path fill="#E7C774" d="M115.643,20.674v1.328c0,2.019-0.247,3.929-0.742,5.732c-0.495,1.804-1.211,3.262-2.148,4.375
			s-2.106,2.021-3.506,2.725s-2.829,1.055-4.287,1.055h-1.309c-1.38-0.013-2.734-0.319-4.062-0.918
			c-2.708-1.237-4.551-3.626-5.527-7.168c-0.417-1.51-0.625-3.313-0.625-5.41l0.02-0.43c0.013-1.914,0.267-3.802,0.762-5.664
			c1.016-3.763,2.956-6.302,5.82-7.617c1.315-0.599,2.734-0.898,4.258-0.898h0.859c1.354,0,2.728,0.3,4.121,0.898
			c2.656,1.159,4.512,3.373,5.566,6.641C115.376,16.963,115.643,18.748,115.643,20.674z M97.342,21.534v1.289
			c0,1.484,0.169,2.852,0.508,4.102c0.651,2.37,1.751,3.998,3.301,4.883c0.911,0.534,1.901,0.801,2.969,0.801h0.605
			c1.042,0,1.979-0.273,2.812-0.82c2.5-1.627,3.757-4.876,3.77-9.746v-1.289c0-2.891-0.573-5.254-1.719-7.09
			c-0.508-0.82-1.169-1.478-1.982-1.973c-0.813-0.495-1.657-0.742-2.529-0.742h-0.898c-1.016,0-1.966,0.287-2.852,0.859
			c-0.886,0.573-1.582,1.244-2.09,2.012c-0.508,0.769-0.95,1.833-1.328,3.193C97.53,18.373,97.342,19.88,97.342,21.534z"/>
		<path fill="#E7C774" d="M141.719,34.756c-0.241,0.495-0.804,0.742-1.689,0.742s-1.419-0.186-1.602-0.557s-0.273-0.934-0.273-1.689
			c0-0.755,0.049-1.901,0.146-3.438c0.098-1.536,0.146-3.581,0.146-6.133l0.078-3.477c0.026-0.651,0.039-1.106,0.039-1.367v-1.094
			c0-2.786-0.293-4.557-0.879-5.312c-0.364-0.469-1.706-0.703-4.023-0.703c-1.159,0-1.95-0.12-2.373-0.361
			c-0.423-0.241-0.635-0.674-0.635-1.299V9.737c0-0.664,0.632-1.087,1.895-1.27c2.461-0.352,5.931-0.527,10.41-0.527h3.887
			c1.511,0,2.497,0.098,2.959,0.293s0.693,0.615,0.693,1.26s-0.345,1.11-1.035,1.396c-0.325,0.13-1.276,0.287-2.852,0.469
			c-1.575,0.183-2.578,0.501-3.008,0.957c-0.755,0.82-1.133,2.976-1.133,6.465l-0.02,0.996l-0.02,0.488l-0.059,2.969
			c-0.013,0.326-0.02,0.658-0.02,0.996l-0.215,5.762l-0.039,0.898l-0.02,1.348C142.08,33.422,141.96,34.262,141.719,34.756z"/>
		<path fill="#E7C774" d="M164.295,32.256c1.094,0,2.09-0.329,2.988-0.986c0.898-0.657,1.565-1.602,2.002-2.832
			s0.762-4.323,0.977-9.277c0.215-4.954,0.437-7.939,0.664-8.955s0.762-1.523,1.602-1.523s1.338,0.124,1.494,0.371
			c0.156,0.248,0.234,0.866,0.234,1.855v2.012l-0.02,0.684l-0.039,3.359c0,5.651-0.056,9.183-0.166,10.596
			c-0.11,1.413-0.388,2.568-0.83,3.467c-0.677,1.341-1.787,2.393-3.33,3.154s-3.519,1.143-5.928,1.143h-0.684
			c-3.347,0-5.781-1.25-7.305-3.75c-0.573-0.95-0.974-2.119-1.201-3.506s-0.342-3.668-0.342-6.846l-0.098-5.156l-0.098-3.633
			l-0.039-1.172v-0.586c0-0.781,0.107-1.266,0.322-1.455c0.215-0.188,0.667-0.283,1.357-0.283c0.925,0,1.55,0.69,1.875,2.07
			c0.43,1.823,0.645,5.339,0.645,10.547l0.039,2.715c0,4.115,1.133,6.66,3.398,7.637C162.374,32.139,163.201,32.256,164.295,32.256z
			"/>
		<path fill="#E7C774" d="M64.404,48.272h0.43c0.716,0,1.074,0.215,1.074,0.645v0.352c0,0.339-1.185,3.034-3.555,8.086
			c-2.37,5.052-3.701,8.001-3.994,8.848c-0.293,0.847-0.612,2.445-0.957,4.795c-0.345,2.351-0.596,3.721-0.752,4.111
			s-0.612,0.586-1.367,0.586s-1.224-0.14-1.406-0.42c-0.183-0.28-0.273-0.647-0.273-1.104c0-0.456,0.039-1.061,0.117-1.816
			l0.117-0.957c0.013-0.052,0.068-0.592,0.166-1.621c0.098-1.028,0.146-2.034,0.146-3.018c0-0.983-0.264-2.028-0.791-3.135
			c-0.527-1.106-1.491-2.972-2.891-5.596c-1.399-2.624-2.507-4.619-3.32-5.986s-1.221-2.181-1.221-2.441
			c0-0.547,0.524-0.82,1.572-0.82s1.931,0.469,2.646,1.406c0.989,1.302,2.146,3.294,3.467,5.977
			c1.321,2.683,2.048,4.023,2.178,4.023c0.442,0,1.55-1.569,3.32-4.707c0.378-0.677,0.925-1.761,1.641-3.252
			c0.716-1.491,1.224-2.432,1.523-2.822C62.861,48.65,63.571,48.272,64.404,48.272z"/>
		<path fill="#E7C774" d="M85.498,63.038c0,2.787,0.615,4.987,1.846,6.602c1.23,1.615,3.03,2.422,5.4,2.422
			c1.224,0,2.712-0.325,4.463-0.977c1.751-0.651,2.692-0.977,2.822-0.977c0.755,0,1.133,0.378,1.133,1.133
			c0,0.404-0.247,0.879-0.742,1.426s-1.296,1.101-2.402,1.66c-1.797,0.898-3.659,1.348-5.586,1.348h-0.605
			c-3.216,0-5.781-1.087-7.695-3.262c-0.95-1.067-1.667-2.428-2.148-4.082c-0.481-1.653-0.723-3.405-0.723-5.254v-0.625
			c0.013-6.81,2.298-11.295,6.855-13.457c1.536-0.729,3.079-1.094,4.629-1.094h0.566c1.731,0,3.323,0.437,4.775,1.309
			c1.452,0.873,2.178,1.797,2.178,2.773s-0.41,1.465-1.23,1.465c-0.144,0-0.94-0.286-2.393-0.859
			c-1.452-0.573-2.764-0.859-3.936-0.859s-2.243,0.257-3.213,0.771c-0.97,0.515-1.716,1.188-2.236,2.021
			C86.084,56.397,85.498,59.236,85.498,63.038z"/>
		<path fill="#E7C774" d="M127.643,60.674v1.328c0,2.019-0.247,3.929-0.742,5.732c-0.495,1.804-1.211,3.262-2.148,4.375
			s-2.106,2.021-3.506,2.725s-2.829,1.055-4.287,1.055h-1.309c-1.38-0.013-2.734-0.319-4.062-0.918
			c-2.708-1.237-4.551-3.626-5.527-7.168c-0.417-1.51-0.625-3.313-0.625-5.41l0.02-0.43c0.013-1.914,0.267-3.802,0.762-5.664
			c1.016-3.763,2.956-6.302,5.82-7.617c1.315-0.599,2.734-0.898,4.258-0.898h0.859c1.354,0,2.728,0.3,4.121,0.898
			c2.656,1.159,4.512,3.373,5.566,6.641C127.376,56.963,127.643,58.748,127.643,60.674z M109.342,61.534v1.289
			c0,1.484,0.169,2.852,0.508,4.102c0.651,2.37,1.751,3.998,3.301,4.883c0.911,0.534,1.901,0.801,2.969,0.801h0.605
			c1.042,0,1.979-0.273,2.812-0.82c2.5-1.627,3.757-4.876,3.77-9.746v-1.289c0-2.891-0.573-5.254-1.719-7.09
			c-0.508-0.82-1.169-1.478-1.982-1.973c-0.813-0.495-1.657-0.742-2.529-0.742h-0.898c-1.016,0-1.966,0.287-2.852,0.859
			c-0.886,0.573-1.582,1.244-2.09,2.012c-0.508,0.769-0.95,1.833-1.328,3.193C109.53,58.373,109.342,59.88,109.342,61.534z"/>
		<path fill="#E7C774" d="M159.35,72.92c0,0.925-0.437,1.387-1.309,1.387c-0.286,0-0.647-0.234-1.084-0.703
			s-0.745-1.185-0.928-2.148c-0.183-0.963-0.388-3.675-0.615-8.135c-0.228-4.459-0.515-6.689-0.859-6.689s-1.426,2.051-3.242,6.152
			s-2.874,6.374-3.174,6.816c-0.586,0.859-1.23,1.289-1.934,1.289s-1.263-0.352-1.68-1.055s-0.977-1.979-1.68-3.828
			c-2.37-6.211-3.809-9.316-4.316-9.316c-0.3,0-0.765,2.445-1.396,7.334c-0.632,4.89-0.96,7.393-0.986,7.51
			c-0.403,1.55-0.925,2.324-1.562,2.324c-0.833,0-1.25-0.462-1.25-1.387c0-0.299,0.068-1.325,0.205-3.076
			c0.137-1.751,0.225-3.203,0.264-4.355s0.107-2.669,0.205-4.551c0.098-1.881,0.146-4.508,0.146-7.881
			c0-0.938,0.163-1.686,0.488-2.246c0.456-0.794,1.12-1.191,1.992-1.191s1.716,0.576,2.529,1.729s2.175,3.594,4.082,7.324
			s2.942,5.596,3.105,5.596s1.152-1.729,2.969-5.186s3.024-5.654,3.623-6.592c1.237-1.927,2.356-2.891,3.359-2.891
			c1.237,0,2.038,0.518,2.402,1.553s0.547,3.864,0.547,8.486l-0.137,7.754c0,1.458,0.039,2.738,0.117,3.838
			C159.311,71.882,159.35,72.595,159.35,72.92z"/>
		<path fill="#E7C774" d="M186.643,60.674v1.328c0,2.019-0.247,3.929-0.742,5.732c-0.495,1.804-1.211,3.262-2.148,4.375
			s-2.106,2.021-3.506,2.725s-2.829,1.055-4.287,1.055h-1.309c-1.38-0.013-2.734-0.319-4.062-0.918
			c-2.708-1.237-4.551-3.626-5.527-7.168c-0.417-1.51-0.625-3.313-0.625-5.41l0.02-0.43c0.013-1.914,0.267-3.802,0.762-5.664
			c1.016-3.763,2.956-6.302,5.82-7.617c1.315-0.599,2.734-0.898,4.258-0.898h0.859c1.354,0,2.728,0.3,4.121,0.898
			c2.656,1.159,4.512,3.373,5.566,6.641C186.376,56.963,186.643,58.748,186.643,60.674z M168.342,61.534v1.289
			c0,1.484,0.169,2.852,0.508,4.102c0.651,2.37,1.751,3.998,3.301,4.883c0.911,0.534,1.901,0.801,2.969,0.801h0.605
			c1.042,0,1.979-0.273,2.812-0.82c2.5-1.627,3.757-4.876,3.77-9.746v-1.289c0-2.891-0.573-5.254-1.719-7.09
			c-0.508-0.82-1.169-1.478-1.982-1.973c-0.813-0.495-1.657-0.742-2.529-0.742h-0.898c-1.016,0-1.966,0.287-2.852,0.859
			c-0.886,0.573-1.582,1.244-2.09,2.012c-0.508,0.769-0.95,1.833-1.328,3.193C168.53,58.373,168.342,59.88,168.342,61.534z"/>
		<path fill="#E7C774" d="M220.404,48.272h0.43c0.716,0,1.074,0.215,1.074,0.645v0.352c0,0.339-1.185,3.034-3.555,8.086
			c-2.37,5.052-3.701,8.001-3.994,8.848c-0.293,0.847-0.612,2.445-0.957,4.795c-0.345,2.351-0.596,3.721-0.752,4.111
			s-0.612,0.586-1.367,0.586s-1.224-0.14-1.406-0.42c-0.183-0.28-0.273-0.647-0.273-1.104c0-0.456,0.039-1.061,0.117-1.816
			l0.117-0.957c0.013-0.052,0.068-0.592,0.166-1.621c0.098-1.028,0.146-2.034,0.146-3.018c0-0.983-0.264-2.028-0.791-3.135
			c-0.527-1.106-1.491-2.972-2.891-5.596c-1.399-2.624-2.507-4.619-3.32-5.986s-1.221-2.181-1.221-2.441
			c0-0.547,0.524-0.82,1.572-0.82s1.931,0.469,2.646,1.406c0.989,1.302,2.146,3.294,3.467,5.977
			c1.321,2.683,2.048,4.023,2.178,4.023c0.442,0,1.55-1.569,3.32-4.707c0.378-0.677,0.925-1.761,1.641-3.252
			c0.716-1.491,1.224-2.432,1.523-2.822C218.861,48.65,219.571,48.272,220.404,48.272z"/>
		<path fill="#E7C774" d="M246.643,60.674v1.328c0,2.019-0.247,3.929-0.742,5.732c-0.495,1.804-1.211,3.262-2.148,4.375
			s-2.106,2.021-3.506,2.725s-2.829,1.055-4.287,1.055h-1.309c-1.38-0.013-2.734-0.319-4.062-0.918
			c-2.708-1.237-4.551-3.626-5.527-7.168c-0.417-1.51-0.625-3.313-0.625-5.41l0.02-0.43c0.013-1.914,0.267-3.802,0.762-5.664
			c1.016-3.763,2.956-6.302,5.82-7.617c1.315-0.599,2.734-0.898,4.258-0.898h0.859c1.354,0,2.728,0.3,4.121,0.898
			c2.656,1.159,4.512,3.373,5.566,6.641C246.376,56.963,246.643,58.748,246.643,60.674z M228.342,61.534v1.289
			c0,1.484,0.169,2.852,0.508,4.102c0.651,2.37,1.751,3.998,3.301,4.883c0.911,0.534,1.901,0.801,2.969,0.801h0.605
			c1.042,0,1.979-0.273,2.812-0.82c2.5-1.627,3.757-4.876,3.77-9.746v-1.289c0-2.891-0.573-5.254-1.719-7.09
			c-0.508-0.82-1.169-1.478-1.982-1.973c-0.813-0.495-1.657-0.742-2.529-0.742h-0.898c-1.016,0-1.966,0.287-2.852,0.859
			c-0.886,0.573-1.582,1.244-2.09,2.012c-0.508,0.769-0.95,1.833-1.328,3.193C228.53,58.373,228.342,59.88,228.342,61.534z"/>
	</g>
</g>
</svg>
