<svg class="map1 margin-map max-width center" xmlns="http://www.w3.org/2000/svg" id="Layer_1" viewBox="0 0 221.1 251"><path d="M196 140.8l.5-.1.1.8 2.2-.5 2.3.1 1.7.1 1.9-2.1 2.1-2 1.8-1.9.5 1.1.4 2.4h-1.4l-.2 2 .5.4-1.3.6v1.2l-.8 1.3-.1 1.2-.6.6-8.4-1.5-1.1-3.1-.1-.6z" class="st0 AE"/><path d="M109.1 81.8l-.3 1.3.4 1.6 1.2.9-.1 1-.9.5-.2 1.2-1.3 1.8-.5-.2-.1-.8-1.6-1.2-.2-1.8.2-2.5.4-1.2-.5-.6-.2-1.2 1.2-1.9.2.7.8-.3.6 1 .7.4.2 1.3z" class="st0 AL"/><path d="M173.6 84.6l3.9-.6.6 1 1.1.6-.6.9 1.5 1.3-.8 1.2 1.2 1 1.3.6.1 2.5-1 .1-1.1-2.1v-.6h-1.2l-.8-1-.6.1-1.1-1.1-2.1-.9.3-1.8-.7-1.2z" class="st0 AM"/><path d="M99 56.9l-.2 1.7h-1.6l.5.9-.9 2.6-.5.7-2.4.2-1.4.9-2.3-.3-4-1.1-.6-1.4-2.8.7-.3.8-1.8-.6-1.4-.1-1.3-.7.4-1-.1-.7.9-.2 1.4 1.1.4-1.1 2.5.2 2-.7 1.3.1.9.8.3-.7-.4-2.7 1-.5 1-1.9 2.1 1.4 1.6-1.7 1-.3 2.2 1.3 1.3-.2 1.3.8-.2.5.1 1.2z" class="st0 AT"/><path d="M104.7 70.2h1l-.7 1.7 1.4 1.5-.4 1.8-.7.2-.5.4-.9.9-.4 2.1-2.5-1.5-1.1-1.6-1.1-.8-1.3-1.5-.5-1.2-1.4-1.8.6-1.6 1 .9.6-.8 1.3-.1 2.4.7 1.9-.1 1.3.8z" class="st0 BA"/><path d="M60.7 43l2.1.4 2.6-.9 1.8 2 1.5 1-.3 3-.7.2-.4 2.3-2.5-2-1.4.3-2-2.1-1.3-1.8-1.3-.1-.4-1.6 2.3-.7z" class="st0 BE"/><path d="M43.5 183.5l-1.9-.7-1.3.1-1 .7-1.3-.6-.5-.9-1.3-.6-.2-1.6.8-1.2-.1-1 2.2-2.4.4-2 .8-.7 1.4.4 1.2-.6.4-.7 2.2-1.3.5-.9 2.6-1.2 1.5-.4.7.5h1.8l-.2 1.4.4 1.3 1.6 1.9.1 1.4 3.2.6-.1 2-.6.9-1.4.3-.6 1.2-1 .3-2.5-.1-1.3-.2-.9.5-1.2-.2-4.9.1-.1 1.6.6 2.1z" class="st0 BF"/><path d="M115 72.6l.8 1.6 1.1-.3 2.2.6 4.1.2 1.4-1 3.3-.9 2 1.4 1.7.4-1.5 1.6-1 2.7.9 2.2-2.4-.5-2.9 1.2v1.9l-2.5.4-2-1.3-2.2 1-2.1-.1-.2-2.5-1.4-1.2.5-.5-.3-.4.5-1.2 1.1-1.2-1.4-1.7-.2-1.4.5-1z" class="st0 BG"/><path d="M133.7 223l-.2-3.4-.7-1.3 1.7.2.9-1.6 1.5.2.2 1.1.6.6v.9l-.7.6-1.1 1.5-1 1-1.2.2z" class="st1 BI"/><path d="M59 193l-2.3.3-.7-1.9.1-6.5-.6-.6-.1-1.4-1-1-.8-.8.4-1.5 1-.3.6-1.2 1.4-.3.6-.9.9-.8h1l2.1 1.6-.1 1 .6 1.7-.5 1.1.3.8-1.4 1.8-.9.9-.5 1.8.1 1.8-.2 4.4z" class="st0 BJ"/><path d="M117.3 31.2h2.7l3-1.8.7-2.7 2.3-1.6-.3-2.2 1.7-.8 3-1.9 3 1.3.4 1.2 1.5-.6 2.7 1.2.3 2.3-.6 1.3 1.8 3.1 1.1.9-.2.9 1.9.8.8 1.2-1.1 1-2.3-.2-.5.4.7 1.5.7 2.9-2.4.3-.9 1-.2 2.3-1.1-.4-2.5.2-.7-1-1 .8-1-.6-2.2-.1-3.1-1.1-2.8-.4-2.2.1-1.5 1.2-1.3.2v-2l-.9-2.1 1.7-.9V35l-.8-1.8-.4-2z" class="st0 BY"/><path d="M137.9 200.7l-.2 3.3 1.1.4-.9 1-1.1.7-1.1 1.5-.6 1.3-.1 2.1-.6 1.1v2.1l-.8.8-.1 1.7-.4.2-.3 1.5.7 1.3.2 3.4.5 2.6-.3 1.5.6 1.6 1.6 1.6 1.5 3.6-1.1-.3-3.8.5-.8.3-.8 1.8.6 1.2-.5 3.4-.4 2.9.8.5 2 1.1.8-.5.2 3.1h-2.2l-1.2-1.6-1-1.2-2.2-.4-.6-1.5-1.7.9-2.2-.4-.9-1.3-1.8-.3-1.3.1-.2-.9-1-.1-1.3-.2-1.7.4-1.2-.1-.7.3.2-3.4-.9-1-.2-1.7.4-1.7-.6-1.1V231h-3.4l.2-1h-1.4l-.2.5-1.7.1-.7 1.6-.4.7-1.5-.4-.9.4-1.9.2-1.1-1.5-.6-.9-.8-1.7-.7-2.1h-8.3l-1 .3h-.8l-1.2.4-.4-.9.7-.3.1-1.2.5-.7 1-.6.7.3 1-1.1H91l.2.8 1 .5 1.6-1.8 1.6-1.4.7-.9-.1-2.3 1.2-2.7 1.3-1.4 1.9-1.3.3-.9.1-1 .5-1-.1-1.6.3-2.5.5-1.7.8-1.5.2-1.7.2-1.9 1.1-1.4 1.5-.9 2.3.9 1.8 1 2 .3 2.1.5.8-1.7.4-.2 1.3.3 3.1-1.4 1.1.6.9-.1.4-.7 1-.2 2.1.3 1.8.1.9-.3 1.7 2.3 1.3.3.8-.5 1.3.2 1.6-.6.7 1.2 2.7 1.9z" class="st1 CD"/><path d="M94.3 189.8l2.3-.2.5-.7.5.1.7.6 3.5-1.1 1.2-1.1 1.5-1-.3-1 .8-.3 2.7.2 2.6-1.3 2-3.1 1.4-1.1 1.8-.5.3 1.2 1.6 1.8v1.1l-.5 1.2.2.9 1 .8 2.1 1.2 1.5 1.1v.9l1.9 1.5 1.2 1.2.7 1.7 2.1 1.1.5.9-.9.3-1.8-.1-2.1-.3-1 .2-.4.7-.9.1-1.1-.6-3.1 1.4-1.3-.3-.4.2-.8 1.7-2.1-.5-2-.3-1.8-1-2.3-.9-1.5.9-1.1 1.4-.2 1.9-1.8-.2-1.9-.5-1.7 1.5-1.5 2.6-.3-.8-.1-1.3-1.3-.9-1-1.4-.2-1-1.3-1.5.2-.8-.3-1.2.2-2.2.7-.5 1.3-2.7z" class="st1 CF"/><path d="M87.9 223.8l-1-1-.9.5-1.1 1.2-2.3-2.9 2.1-1.5-1-1.9 1-.7 1.9-.3.2-1.2 1.5 1.3 2.5.1.9-1.3.4-1.9-.3-2.2-1.3-1.6 1.2-3.2-.7-.5-2.1.2-.8-1.4.2-1.2 3.5.1 2.3.7 2.2.7.2-1.5 1.5-2.6 1.7-1.5 1.9.5 1.8.2-.2 1.7-.8 1.5-.5 1.7-.3 2.5.1 1.6-.5 1-.1 1-.3.9-1.9 1.3-1.3 1.4-1.2 2.7.1 2.3-.7.9-1.6 1.4-1.6 1.8-1-.5-.2-.8h-1.5l-1 1.1-1-.6z" class="st0 CG"/><path d="M78.3 59.4l.1.7-.4 1 1.3.7 1.4.1-.2 1.7-1.2.7-2.1-.5-.6 1.6-1.3.1-.6-.5-1.6 1.4-1.4.2-1.2-.9-1-1.8-1.3.6v-1.8l2.1-2.3-.1-1.1 1.3.4.8-.7h2.4l.6-.9 3 1.3z" class="st0 CH"/><path d="M43.4 196.5h-1.3l-2-.5h-1.8l-3.3.5-1.9.8-2.8 1-.5-.1.2-2.2.3-.4-.1-1.1-1.2-1.2-.9-.2-.8-.8.6-1.2-.3-1.4.1-.8h.5l.2-1.2-.2-.5.3-.4 1-.3-.7-2.3-.6-1.2.2-1 .6-.2.4-.3.8.4h2.2l.5-.8.5.1.6-.2.4 1.2.6-.4 1.2-.4 1.3.6.5 1 1.3.6 1-.7 1.3-.1 1.9.7.7 4-1.2 2.4-.7 3.2 1.2 2.4-.1 1z" class="st0 CI"/><path d="M88.1 204.2l-.4-.1-1.7.4-1.7-.4-1.3.2-4.6-.1.4-2.2-1.1-1.8-1.3-.5-.6-1.2-.7-.4v-.8l.7-2 1.3-2.7h.8l1.7-1.6h1.1l1.6 1.1 1.9-.9.3-1.2.6-1.1.4-1.4 1.5-1.2.6-2 .6-.6.4-1.5.7-1.8 2.4-2.2.2-.9.3-.5-1.1-1.1.1-.9.8-.2 1.1 1.8.2 1.9-.1 1.9 1.5 2.6h-1.6l-.8.2-1.3-.3-.6 1.3 1.7 1.6 1.2.5.4 1.2.9 1.9-.4.8-1.4 2.8-.7.5-.2 2.2.3 1.2-.2.8 1.3 1.5.2 1 1 1.4 1.3.9.1 1.3.3.8-.2 1.5-2.2-.7-2.3-.7-3.4-.3z" class="st0 CM"/><path d="M146.5 105.4l1.9-1.5-2.5 1-2-.1-.4.8h-.2l-1.3.1.6 1.4 1.4.4 2.9-1.4-.1-.3-.3-.4z" class="st0 CY"/><path d="M99 54.9l-1.3-.8-1.3.2-2.2-1.3-1 .3-1.6 1.7-2.1-1.4-1.5-1.7-1.4-1-.3-1.8-.5-1.3 2-.9 1-1.1 2-.9.7-.8.7.5 1.2-.5 1.3 1.4 2.1.4-.2 1.2 1.5.9.4-1.1 1.9.5.3 1.4 2.3.2 1.3 2.1h-.8l-.4.8-.6.2-.2 1-.5.2-.1.4-1 .4-1.3-.1-.4.9z" class="st0 CZ"/><path d="M79.2 26v1.9L82 29v1.7l2.9-.9 1.6-1.3 3.2 1.9 1.3 1.5.7 2.4-.8 1.2 1 1.6.7 2.4-.2 1.6 1.1 2.9-1.2.5-.8-.5-.7.8-2 .9-1 1.1-2 .9.5 1.3.3 1.8 1.4 1 1.6 1.8-1 1.9-1 .5.4 3-.3.7-.9-.8-1.3-.1-2 .7-2.5-.2-.4 1.1-1.4-1.1-.9.2-3-1.3-.6.9h-2.4l.4-3 1.4-2.9-4-.8-1.3-1.1.2-1.9-.6-1 .3-3-.5-4.7h1.7l.7-1.7.7-4.2-.5-1.6.6-1 2.3-.3.5 1 1.9-2.3-.6-1.8-.1-2.8 2.1.6 1.7-.6z" class="st0 DE"/><path d="M172.2 174.8l.7.9-.1 1.2-1.6.7 1.2.8-1 1.5-.6-.5-.7.2h-1.6v-.9l-.2-.8.9-1.3 1-1.3 1.2.2.8-.7z" class="st0 DJ"/><path d="M87 22.9l-1.7 4-2.9-2.8-.4-2 4.1-1.7.9 2.5zm-5-4.2l-.7 1.9-.8-.6-2 3.6.8 2.4-1.8.7-2.1-.6-1.1-2.7-.1-5.1.5-1.4.8-1.5 2.5-.3 1-1.4 2.3-1.5-.3 2.6-.8 1.7.3 1.4 1.5.8z" class="st0 DK"/><path d="M85.1 143.2l-9.6 5.8-8.1 5.9-4 1.3-3.1.3v-1.9L59 154l-1.8-.9-.7-1.4-9.5-6.5-9.5-6.7-10.4-7.5.1-.6v-4l4.5-2.4 2.8-.5 2.3-.9 1.1-1.6 3.3-1.3.1-2.4 1.6-.3 1.3-1.2 3.7-.6.5-1.3-.7-.7-1-3.5-.2-2-1.1-2.2 2.7-1.9 3-.6 1.8-1.4 2.7-1 4.8-.6 4.6-.3 1.4.5 2.6-1.4h3l1.1.8 1.9-.2-.6 1.8.4 3.3-.7 2.8-1.7 1.9.2 2.5 2.3 2v.8l1.7 1.3 1.2 5.9.9 2.8.1 1.5-.5 2.6.2 1.4-.4 1.7.2 2-1.1 1.3 1.7 2.3.1 1.3 1 1.7 1.3-.6 2.2 1.4 1.6 2.1z" class="st0 DZ"/><path d="M119.6 11.8l.3-3.1-1 .7-1.8-1.9-.2-3.1 3.5-1.5 3.5-.8 3 .9 2.9-.2.4 1-2 3.1.8 5-1.2 1.7h-2.3l-2.4-1.9-1.1-.8-2.4.9z" class="st0 EE"/><path d="M149.3 124.4l-.8 1.3-.6 2.4-.8 1.6-.7.6-.9-1-1.3-1.4-2-4.6-.3.3 1.2 3.4 1.7 3.2 2.1 4.9 1 1.7.9 1.7 2.5 3.4-.6.5.1 2 3.3 2.7.5.6h-33.3v-22.4l-.8-2.6.7-2-.4-1.4 1-1.6h3.7l2.7.9 2.8 1 1.3.5 2.2-1 1.2-.9 2.5-.3 2 .4.8 1.6.7-1.1 2.2.8 2.2.2 1.4-.8 1.8 5.4z" class="st0 EG"/><path d="M14.7 130.1h12.4-12.4l-.1.1-1.8 3.2-1.9 1.1-1 1.9-.1 1.6-.7 2-.9.5-1.6 1.9-1 2.1.2 1-.9 1.6-1.1.9-.1 1.4-.1 1.3.6-1h11l-.5-4.3.7-1.6 2.6-.3-.1-7.9 9.2.2V131l.1-.6v-.2l-12.5-.1z" class="st0 EH"/><path d="M170.2 175.3l-1-.9-1.1-1.7-1.2-.9-.7-1-2.4-1.1h-1.9l-.7-.6-1.6.7-1.7-1.3-.9 2.1-3.3-.6-.3-1.1 1.2-4.2.3-1.9.9-.9 2.1-.5 1.4-1.7 1.6 3.4.8 2.7 1.5 1.4 3.8 2.7 1.6 1.6 1.5 1.7.9 1 1.4.9-.8.7-1.4-.5z" class="st0 ER"/><path d="M26.1 81.6l.1-2.7-1.1-1.7 4-2.8 3.4.7h3.8l3 .7 2.3-.2 4.5.1 1.1 1.5 5.2 1.7 1-.8 3.2 1.7 3.2-.5.1 2.2-2.7 2.5-3.6.8-.2 1.2-1.7 2-1.1 3 1.1 2.1-1.6 1.6-.6 2.3-2.1.7-2 2.7-3.6.1-2.7-.1-1.8 1.2-1.1 1.3-1.4-.3-1-1.2-.8-2-2.5-.4-.2-1.2 1-1.3.4-1-1-1.1.8-2.4-1.1-2.2 1.2-.3.1-1.7.5-.5v-2.9l1.3-1-.8-1.9-1.6-.1-.5.6H29l-.7-1.8-1.1.5-1.1.9z" class="st0 ES"/><path d="M157.7 168.3l1.7 1.3 1.6-.7.7.6h1.9l2.4 1.1.7 1 1.2.9 1.1 1.7 1 .9-1 1.3-.9 1.3.2.8v.9h1.6l.7-.2.6.5-.6 1 1 1.6 1 1.4 1.1 1 9.2 3.3h2.4l-7.9 8.4-3.7.1-2.5 2h-1.8l-.8.9h-1.9l-1.1-.9-2.6 1.2-.8 1.2-1.9-.2-.6-.3-.7.1h-.9l-3.5-2.4h-2l-1-.9v-1.6l-1.5-.5-1.6-3-1.3-.7-.5-1.1-1.4-1.4-1.7-.2 1-1.6 1.5-.1.4-.9v-2.5l.8-3 1.3-.8.3-1.2 1.2-2.2 1.7-1.4 1.1-2.8.5-2.5 3.3.6 1-2z" class="st0 ET"/><path d="M78.2 80.6l-.9 2.9-1.3-.7-.6-2.5.6-1.4 1.8-1.5.4 3.2zM61.5 47.3l2 2.1 1.4-.3 2.5 2 .6.4.8-.1 1.3 1.1 4 .8-1.4 2.9-.4 3-.8.7-1.3-.4.1 1-2 2.3v1.8l1.3-.6 1 1.8-.1 1.1.8 1.5-1 1.2.7 3 1.5.5-.3 1.7-2.5 2.2-5.5-1-4.1 1.2-.3 2.3-3.2.5-3.1-1.7-1 .8-5.2-1.7-1.1-1.5 1.5-2.3.5-7.9-2.9-4.3-2.1-2.1-4.3-1.6-.3-3.1 3.6-.9 4.7 1.1-.9-4.9 2.6 1.9 6.5-3.4.8-3.6 2.5-.9.4 1.6 1.3.1 1.4 1.7z" class="st0 FR"/><path d="M82.5 221.6l-2.9-2.8-1.9-2.3-1.7-2.9.1-.9.6-.9.7-2 .6-2.1 1-.2h4.1v-3.4l1.3-.2 1.7.4 1.7-.4.4.1-.2 1.2.8 1.4 2.1-.2.7.5-1.2 3.2 1.3 1.6.3 2.2-.4 1.9-.9 1.3-2.5-.1-1.5-1.3-.2 1.2-1.9.3-1 .7 1 1.9-2.1 1.8z" class="st0 GA"/><path d="M35.6 28.1l-1.5 3.3-2.1-1-1.7.1.6-2.6-.6-2.6 2.4-.2 2.9 3zM43 7.3L40 13l2.9-.7H46l-.7 4.2-2.5 4.5 2.9.3.2.5 2.5 5.8 1.9.8 1.7 5.4.8 1.8 3.4.9-.3 2.9-1.4 1.3 1.1 2.3-2.6 2.6h-3.8l-4.8 1.2-1.3-.9-1.9 2.1-2.6-.5-2 1.7-1.5-.9 4.1-4.6 2.5-1-4.4-.8-.8-1.8 2.9-1.4-1.5-2.5.5-3.1 4.2.4.4-2.7-1.9-3v-.1l-3.4-.9-.7-1.3 1-2.2-.7-1.3-1.5 2.3-.2-4.8-1.4-2.5 1-5.4 2.2-4.3 2.2.4 3.4-.4z" class="st0 GB"/><path d="M167.9 82.9l.4-1.6-.7-2.6-1.6-1.4-1.5-.4-1-1.2.3-.5 2.4.7 4.1.6 3.8 1.8.5.7 1.7-.6 2.6.8.8 1.5 1.8.9-.7.5 1.4 2-.4.4-1.5-.2-2.1-1.1-.7.6-3.9.6-2.7-1.8-3 .3z" class="st0 GE"/><path d="M54.4 193.9l-4.4 1.6-1.6 1-2.5.8-2.5-.8.1-1.1-1.2-2.4.7-3.2 1.2-2.4-.7-4-.4-2.1.1-1.6 4.9-.1 1.2.2.9-.5 1.3.2-.2.9 1.2 1.5v2l.3 2.2.7 1-.6 2.5.2 1.4.8 1.8.5 1.1z" class="st0 GH"/><path d="M4.2 173.5l.4-1.3 3-.1.6-.7h.9l1.1.7h.9l.9-.5.6.8-1.2.6h-1.2l-1.2-.5-1 .7h-.5l-.7.4-2.6-.1z" class="st0 GM"/><path d="M27.8 189l-.8-.1-.6 1.1h-.8l-.5-.6.2-1.1-1.2-1.7-.7.3-.6.1-.8.2v-1l-.4-.7.1-.8-.6-1.2-.8-1H18l-.6.5-.8.1-.5.6-.3.8-1.5 1.2-1.2-1.7-1.1-1.1-.7-.4-.7-.6-.3-1.2-.5-.7-.8-.5 1.2-1.4h.9l.7-.5h.6l.4-.4-.2-.9.3-.3v-1h1.4l2 .7.6-.1.2-.3 1.5.2.4-.2.2 1h.4l.7-.4.5.1.8.7 1.2.2.8-.6.9-.4.7-.4.6.1.6.6.3.8 1.1 1.2-.6.7-.1.9.6-.3.4.3-.1.8.9.8-.6.2-.2 1 .6 1.2.7 2.3-1 .3-.3.4.2.5-.2 1.2h-.3v.5z" class="st0 GN"/><path d="M78 207.7l-.5-.4 1-3.1 4.6.1v3.4H78z" class="st0 GQ"/><path d="M117.9 103.8l1.5 1.2 2.2-.2 2.1.2-.1.6 1.5-.4-.3 1-4 .3v-.6l-3.4-.7.5-1.4zm8.1-21l-.9 2.3-.7.4-1.7-.1-1.5-.4-3.4 1 1.9 2.1-1.4.6h-1.6l-1.5-1.9-.5.8.6 2.2 1.4 1.7-1.1.8 1.6 1.6 1.4 1v2l-1.4-1.1-1.2.2.8 1.8-.9.2-1-.7 1.2 4h-.6l-.5-1.2h-.6l-.3 1.3-.5-.3.1-.7-.6-1h-.6l.1.8-.2.3-.6-.5-.4-1 .5-.6-.4-.7-.4-.4-.4-.1-.5-.9.6-.5.4-.5.6.1.2-.4.6-.2.7.5.5.2.4-.6-.9-.1-.6-.2-1.2.3h-1.2l-1.1-1.6-.2-.2.2-.6-1.4-1.1-.2-1 1.3-1.8.2-1.2.9-.5.1-1 1.8-.3 1.1-.8 1.5.1.5-.6.5-.1 2.1.1 2.2-1 2 1.3 2.5-.4v-1.9l1.7.5z" class="st0 GR"/><path d="M9 179.5l-1.5-1.2-1.2-.2-.6-.8v-.4l-.8-.6-.2-.6 1.5-.5.9.1.8-.3 5.2.1v1l-.3.3.2.9-.4.4h-.8l-.7.5h-.9L9 179.5z" class="st0 GW"/><path d="M104.2 66l.7 1.6.9 1.1-1.1 1.5-1.3-.9-1.9.1-2.4-.7-1.3.1-.6.8-1-.9-.6 1.6 1.4 1.8.6 1.2 1.3 1.5 1.1.8 1.1 1.6 2.5 1.4-.3.6-2.8-1.2-1.6-1.4-2.6-1.1-2.3-2.9.6-.3-1.3-1.6-.1-1.3-1.8-.6-.9 1.7-.8-1.3.1-1.4.1-.1 1.9.1.5-.7 1 .6 1.1.1v-1.1l1-.4.3-1.6 2.2-1.1.9.5 2.1 1.7 2.3.8 1-.6z" class="st0 HR"/><path d="M96.9 62.2l.9-2.6-.5-.9h1.6l.2-1.7 1.4 1.1 1 .5 2.4-.5.2-.8 1.1-.1 1.4-.6.3.3 1.3-.5.7-1 .9-.2 3 1.3.6-.4 1.5 1.1.2 1.1-1.7.9-1.3 2.8-1.7 2.8-2.2.8-1.8-.2-2.2 1-1 .6-2.3-.8-2.1-1.7-.9-.5-.5-1.4-.5-.4z" class="st0 HU"/><path d="M34.1 31.4l.5 3.4-2.1 4.1-5 2.7-4-.7 2.3-4.8-1.5-4.8 3.8-3.8 2.1-2.3.6 2.6-.6 2.6 1.7-.1 2.2 1.1z" class="st0 IE"/><path d="M151.6 113.9l-.5 1-1-.5-.6 2.2.7.4-.7.5-.1.9 1.3-.5.1 1.3-1.4 5.2-1.8-5.5.8-1.1-.2-.2.7-1.5.6-2.5.4-.8h1l.3-.6.8-.1v1.4l-.4.4z" class="st0 IL"/><path d="M178.8 102.9l1.8 1 .2 2-1.4 1.2-.6 2.6 1.9 3.2 3.4 1.8 1.5 2.5-.5 2.4h.9v1.7l1.5 1.7-1.7-.1-1.9-.3-2.1 3.1-5.2-.3-7.9-6.5-4.2-2.3-3.4-.9-1.1-4 6.2-3.5 1.1-4.1-.3-2.5 1.5-.9 1.4-2.2 1.2-.6 3.3.5 1 .9 1.3-.6 2.1 4.2z" class="st0 IQ"/><path d="M94.9 95l-1 2.8.4 1.1-.6 1.8-2.1-1.3-1.4-.4-3.9-1.8.4-1.8 3.3.3 2.9-.4 2-.3zM77.2 84.1l1.7 2.6-.4 4.8-1.3-.2-1.1 1.2-1.1-1v-4.3l-.6-2.1 1.5.2 1.3-1.2zm8.9-21.6l4 1-.3 2 .7 1.7-2.2-.6-2.3 1.5.2 2-.3 1.1.9 2 2.6 2 1.4 3.2 3.1 3h2.2l.7.8-.8.7 2.5 1.4 2.1 1.1 2.4 1.9.3.7-.5 1.3-1.6-1.7-2.5-.6-1.2 2.4 2 1.3-.3 1.9-1.2.2-1.5 3.1-1.2.3v-1.1l.6-1.9.6-.8-1.1-2.1-.9-1.8-1-.5-.8-1.6-1.8-.7-1.2-1.5-2.1-.2-2.2-1.7-2.6-2.5-1.9-2.2-.9-3.7-1.4-.5-2.3-1.3-1.3.5-1.6 1.8-1.2.3.3-1.7-1.5-.5-.7-3 1-1.2-.8-1.5.1-1.1 1.2.9 1.4-.2 1.6-1.4.5.6 1.3-.1.6-1.6 2.1.5 1.2-.7.2-1.7 1.7.6.3-.8 2.8-.7.6 1.4z" class="st0 IT"/><path d="M151.1 115l.5-1 3.1 1.3 5.5-3.5 1.1 4-.5.5-5.6 1.6 2.8 3.3-.9.5-.5 1.1-2.1.4-.7 1.2-1.2 1-3.1-.5-.1-.5 1.4-5.2-.1-1.3.4-1V115z" class="st0 JO"/><path d="M166.4 212.9l1.7 2.3-2 1.1-.7 1.2-1.1.2-.4 2-.9 1.1-.5 1.9-1.1.9-4-2.8-.2-1.6-10.2-5.7-.5-.3v-3l.8-1.1 1.4-1.8 1-2-1.2-3.2-.3-1.4-1.3-1.9 1.7-1.7 1.9-1.8 1.5.5v1.6l1 .9h2l3.5 2.4h.9l.7-.1.6.3 1.9.2.8-1.2 2.6-1.2 1.1.9h1.9l-2.5 3.2-.1 10.1z" class="st0 KE"/><path d="M109.6 81l-.1.8h-.4l-.2-1.4-.7-.4-.6-1 .5-.9.7-.3.4-1.3.5-.2.4.5.5.2.4.6.5.2.5.7h.4l-.3.9-.3.5.1.3-.6.1-1.7.7z" class="st0 XK"/><path d="M185.9 122.9l.6 1.4-.2.7.9 2.4-2 .1-.7-1.5-2.5-.3 2.1-3.1 1.8.3z" class="st0 KW"/><path d="M151.9 112l-.8.1-.3.6h-.9l1-2.7 1.4-2.4.1-.1 1.3.2.5 1.3-1.5 1.3-.8 1.7z" class="st0 LB"/><path d="M29.8 198.3h-.7l-2.9-1.3-2.5-2.1-2.4-1.5-1.9-1.8.7-.9.1-.8 1.3-1.5 1.3-1.3.6-.1.7-.3 1.2 1.7-.2 1.1.5.6h.8l.6-1.1.8.1-.1.8.3 1.4-.6 1.2.8.8.9.2 1.2 1.2.1 1.1-.4.2-.2 2.3z" class="st0 LR"/><path d="M115.2 29.2L115 28l.3-1.3-1.2-.8-2.9-.9-.6-4.2 3.2-1.5 4.7.3 2.8-.5.4 1 1.5.3 2.7 2.4.3 2.2-2.3 1.6-.7 2.7-3 1.8h-2.7l-.7-1.5-1.6-.4z" class="st0 LT"/><path d="M68.4 48.4l.6 1-.2 1.9-.8.1-.7-.4.3-2.4.8-.2z" class="st0 LU"/><path d="M110.5 20.8l.1-3.8 1.4-3.2 2.6-1.8 2.2 3.9 2.2-.1.5-4 2.4-.9 1.2.6 2.4 1.9h2.3l1.3 1.2.2 2.5.9 3-3 1.9-1.7.8-2.7-2.4-1.5-.3-.4-1-2.8.5-4.7-.3-2.9 1.5z" class="st0 LV"/><path d="M93.1 145l-2 1.1-1.6-1.7-4.4-1.3-1.2-1.9-2.2-1.4-1.3.6-1-1.7-.1-1.3-1.7-2.3 1.1-1.3-.2-2 .4-1.7-.2-1.4.5-2.6-.1-1.5-.9-2.8 1.4-.8.2-1.4-.3-1.4 1.9-1.3.9-1.1 1.4-.9.2-2.6 3.3 1.1 1.2-.3 2.3.6 3.7 1.5 1.3 2.9 2.5.6 4 1.4 3 1.6 1.4-.8 1.3-1.5-.6-2.5.9-1.6 2-1.6 1.9-.4 3.8.7 1 1.5h1l.9.6 2.8.4.7 1.1-1 1.6.4 1.4-.7 2 .8 2.6v28.4h-3.2v1.2l-11.2-5.7-11.2-5.8-3.1 1.7z" class="st0 LY"/><path d="M27.1 130.2v-3.8l4.5-2.4 2.8-.5 2.3-.9 1.1-1.6 3.3-1.3.1-2.4 1.6-.3 1.3-1.2 3.7-.6.5-1.3-.7-.7-1-3.5-.2-2-1.1-2.2h-1.2l-2.9-.8-2.7.2-1.7-1.5h-2.1l-.9 2.1-1.9 3.5-2.1 1.4-2.8 1.5-1.8 2.2-.4 1.7-1.1 2.8.7 4-2.3 2.7-1.4.9-2.2 2.2-2.5.6-1.3 1.1h3.6l8.8.1-8.8-.1h-3.6l12.4.1z" class="st0 MA"/><path d="M126.1 56.5l.7-.6 1.9-.4 2.1 1.3 1.2.2 1.3 1.1-.2 1.4 1 .7.4 1.7 1 1-.2.6.5.4-.7.3-1.7-.1-.3-.6-.6.3.2.7-.8 1.3-.5 1.4-.7.4-.5-1.8.3-1.7-.1-1.8-1.6-2.4-.9-1.8-.9-1.2-.9-.4z" class="st0 MD"/><path d="M106.9 79.3l-.2-.7-1.2 1.9.2 1.2-.6-.3-.8-1.2-1.2-.8.3-.6.4-2.1.9-.9.5-.4.7.7.4.5.9.4 1.1.8-.2.3-.5.9-.7.3z" class="st0 ME"/><path d="M109.1 81.8h.4l.1-.8 1.7-.6.6-.1 1-.2 1.3-.1 1.4 1.2.2 2.5-.5.1-.5.6-1.5-.1-1.1.8-1.8.3-1.2-.9-.4-1.6.3-1.1z" class="st0 MK"/><path d="M17.3 169.3l.9-.5.5-1.7.9-.1 2 .8 1.6-.6 1.1.2.4-.6h11.2l.6-2-.5-.4-1.3-12.7-1.4-13.1 4.3-.1 9.5 6.7 9.5 6.5.7 1.4 1.7.9 1.3.5v1.9l3.1-.3v6.8l-1.5 1.9-.2 1.8-2.5.4-3.8.2-1 1-1.8.1h-1.8l-.7-.5-1.5.4-2.6 1.2-.5.9-2.2 1.3-.4.7-1.2.6-1.4-.4-.8.7-.4 2-2.2 2.4.1 1-.8 1.2.2 1.6-1.2.4-.6.4-.6-1.2-.8.3-.5-.1-.5.8H30l-.8-.4-.4.3-.9-.8.1-.8-.4-.3-.6.3.1-.9.6-.7-1.1-1.2-.3-.8-.6-.6-.6-.1-.7.4-.9.4-.8.6-1.2-.2-.8-.7-.5-.1-.7.4h-.4l-.2-1 .1-.9-.2-1.1-1-.8-.5-1.6v-2.1z" class="st0 ML"/><path d="M17.3 169.3l-1.9-2-1.7-2.1-1.9-.8-1.3-.9H8.9l-1.4.6-1.3-.1-1 .9-.2-1.5.8-1.4.4-2.8-.3-2.9-.3-1.5.3-1.5-.7-1.4-1.5-1.3.6-1h11l-.5-4.3.7-1.6 2.6-.3-.1-7.9 9.2.2V131l10.6 7.5-4.3.1 1.4 13.1 1.3 12.7.5.4-.6 2H24.9l-.4.6-1.1-.2-1.6.6-2-.8-.9.1-.5 1.7-1.1.5z" class="st0 MR"/><path d="M57.5 177l.1-2-3.2-.6-.1-1.4-1.6-1.9-.4-1.3.2-1.4 1.8-.1 1-1 3.8-.2 2.5-.4.2-1.8 1.5-1.9v-6.8l4-1.3 8.1-5.9 9.6-5.8 4.4 1.3 1.6 1.7 2-1.1.7 4.7 1 .8v.9l1.2 1-.6 1.3-1.1 6-.1 3.8-3.6 2.7-1.2 3.8 1.2 1.1v1.9l1.8.1-.3 1.3-.8.2-.1.9-.5.1-1.9-3.1-.7-.1-2.2 1.6-2.2-.8-1.5-.2-.8.4-1.7-.1-1.6 1.2-1.4.1-3.4-1.5-1.3.7h-1.4l-1.1-1.1-2.8-1.1-3 .3-.7.6-.4 1.6-.8 1.2-.2 2.5-2.1-1.6h-1l-.9.7z" class="st0 NE"/><path d="M75.3 197.2l-2.9 1-1.1-.1-1.1.6-2.2-.1-1.5-1.8-.9-2-2-1.8H59l.2-4.5-.1-1.8.5-1.8.9-.9 1.4-1.8-.3-.8.5-1.1-.6-1.7.1-1 .2-2.5.8-1.2.4-1.6.7-.6 3-.3 2.8 1.1 1.1 1.1H72l1.3-.7 3.4 1.5 1.4-.1 1.6-1.2 1.7.1.8-.4 1.5.2 2.2.8 2.2-1.6.7.1 1.9 3.1.5-.1 1.1 1.1-.3.5-.2.9-2.4 2.2-.7 1.8-.4 1.5-.6.6-.6 2-1.5 1.2-.4 1.4-.6 1.1-.3 1.2-1.9.9-1.6-1.1h-1.1l-1.7 1.6h-.8l-1.3 2.7-.6 2.3z" class="st1 NG"/><path d="M68.5 33.1l2.3.1.5 1.6-.7 4.2-.7 1.7h-1.7l.5 4.7-1.5-1-1.8-2-2.6.9-2.1-.3 1.4-1.2 2.5-6.7 3.9-2z" class="st0 NL"/><path d="M216.5 150.3l-1 2-1.3-.2-.6.7-.5 1.5.3 2-.3.4h-1.3l-1.8 1.1-.3 1.4-.6.6h-1.7l-1.1.7v1.2l-1.4.8-1.5-.3-1.9 1-1.3.2-.9-2-2.2-4.8 8.4-3 1.9-6-1.3-2.1.1-1.2.8-1.3v-1.2l1.3-.6-.5-.4.2-2h1.4l1.3 2.1 1.6 1.1 2.1.4 1.7.5 1.3 1.7.8 1 1 .4v.7l-1 1.8-.5.8-1.2 1zm-7-14.6l-.4.6-.5-1.1.8-1.1.3.3-.2 1.3z" class="st0 OM"/><path d="M93.5 44.1l-1.1-2.9.2-1.6-.7-2.4-1-1.6.8-1.2-.7-2.5 1.9-1.4 4.4-2.2 3.5-1.6 2.8.8.2 1.2 2.7.1 3.5.6 5.2-.1 1.4.5.7 1.5.1 2.1.8 1.8v1.9l-1.7.9.9 2.1v2l1.4 3.9-.3 1.2-1.4.5-2.5 3.6.7 1.9-.6-.2-2.7-1.6-2 .6-1.3-.4-1.7.9-1.4-1.5-1.2.6-.2-.3L103 49l-2.1-.3-.3-1.4-1.9-.5-.4 1.2-1.5-.9.2-1.2-2.1-.4-1.4-1.4z" class="st0 PL"/><path d="M151.1 115v2l-.4 1-1.3.5.1-.9.7-.5-.7-.4.6-2.2 1 .5z" class="st0 PS"/><path d="M26.1 81.6l1-1 1.1-.5.8 1.9h1.6l.5-.5 1.6.1.8 1.9-1.3 1v2.9l-.5.5-.1 1.7-1.2.3 1.1 2.2-.8 2.4 1 1.1-.4 1-1 1.3.2 1.2-1.1.9-1.5-.5-1.5.4.4-2.7-.3-2.2-1.3-.3-.7-1.4.2-2.4 1.1-1.3.2-1.5.6-2.2-.1-1.6-.6-1.3.2-1.4z" class="st0 PT"/><path d="M193.9 139.2l-.2-2.2.8-1.6.8-.3.9 1v1.8l-.6 1.8-.8.2-.9-.7z" class="st0 QA"/><path d="M115.1 57.9l1.2-.9 1.7.5h1.8l1.3 1 1-.6 2.1-.4.7-1h1.2l.8.4.9 1.2.9 1.8 1.6 2.4.1 1.8-.3 1.7.5 1.8 1.2.7 1.3-.6 1.3.7.1 1-1.4.8-.9-.4-.8 4.7-1.7-.4-2-1.4-3.3.9-1.4 1-4.1-.2-2.2-.6-1.1.3-.8-1.6-.5-.7.6-.7-.7-.5-.9.9-1.6-1.1-.2-1.6-1.5-.8-.3-1.3-1.5-1.6 2.2-.8 1.7-2.8 1.3-2.8 1.7-.8z" class="st0 RO"/><path d="M110 68l1.7.9.2 1.6 1.6 1.1.9-.9.7.5-.6.7.5.7-.7.9.2 1.4 1.4 1.7-1.1 1.2-.5 1.2.3.4-.5.5-1.3.1-1 .2-.1-.3.3-.5.3-.9h-.4l-.5-.7-.5-.2-.4-.6-.5-.2-.4-.5-.5.2-.4 1.3-.7.3.2-.3-1.1-.8-.9-.4-.4-.5-.7-.7.7-.2.4-1.8-1.4-1.5.7-1.7h-1l1.1-1.5-.9-1.1-.7-1.6 2.2-1 1.8.2 1.5 1.6.5 1.2z" class="st0 RS"/><path d="M136.7 213.6l1.1 1.6-.2 1.6-.8.3-1.5-.2-.9 1.6-1.7-.2.3-1.5.4-.2.1-1.7.8-.8.7.3 1.7-.8z" class="st0 RW"/><path d="M171.4 164.3l-.4-1.2-.9-.9-.2-1.2-1.4-1-1.5-2.5-.8-2.4-1.9-2-1.2-.5-1.9-2.9-.3-2.1.1-1.8-1.6-3.4-1.3-1.2-1.5-.6-.9-1.8.2-.7-.8-1.6-.8-.7-1.1-2.3-1.7-2.5-1.4-2.2h-1.4l.4-1.7.1-1.1.3-1.3 3.1.5 1.2-1 .7-1.2 2.1-.4.5-1.1.9-.5-2.8-3.3 5.6-1.6.5-.5 3.4.9 4.2 2.3 7.9 6.5 5.2.3 2.5.3.7 1.5 2-.1 1.1 2.7 1.4.7.5 1.1 1.9 1.3.2 1.3-.3 1 .4 1 .8.9.4 1 .4.8.8.6.8-.2.5 1.2.1.7 1.1 3.1 8.4 1.5.6-.6 1.3 2.1-1.9 6-8.4 3-8.1 1.1-2.6 1.3-2 3.1-1.3.5-.7-1-1.1.2-2.7-.3-.5-.3-3.2.1-.8.3-1.1-.8-.8 1.4.3 1.2-1.3 1z" class="st0 SA"/><path d="M146.6 184h-.4v-1.4l-.3-1-1.4-1.1-.3-2.1.3-2.1-1.3-.2-.2.6-1.7.1.7.8.2 1.7-1.5 1.6-1.4 2-1.4.3-2.4-1.6-1.1.6-.3.8-1.4.5-.1.6h-2.8l-.4-.6-2-.1-1 .5-.8-.2-1.4-1.6-.5-.8-2 .4-.8 1.3-.7 2.5-1 .5-.9.3-.2-.1-1-.8-.2-.9.5-1.2v-1.1l-1.6-1.8-.3-1.2v-.7l-1-.8V176l-.6-1.1-1 .2.3-1.1.7-1.2-.3-1.2.9-.9-.6-.7.7-1.8 1.3-2.1 2.4.2-.1-11.6v-1.2h3.2v-6H154.7l.9 2.9-.6.5.4 3.1 1 3.5 1.1.7 1.5 1.1-1.4 1.7-2.1.5-.9.9-.3 1.9-1.2 4.2.3 1.1-.5 2.5-1.1 2.8-1.7 1.4-1.2 2.2-.3 1.2-1.3.8-.8 3 .1.5z" class="st0 SD"/><path d="M90.1 63.6l2.3.3 1.4-.9 2.5-.1.5-.7.5.1.5 1.4-2.2 1.1-.3 1.6-1 .4v1.1l-1.1-.1-1-.6-.5.7-1.9-.1.6-.4-.7-1.7.4-2.1z" class="st0 SI"/><path d="M104.3 51.1l.2.3 1.2-.6 1.4 1.5 1.7-.9 1.3.4 2-.6 2.7 1.6-.8 1.1-.5 1.7-.6.4-3-1.3-.9.2-.7 1-1.3.5-.3-.3-1.4.6-1.1.1-.2.8-2.4.5-1-.5-1.6-.7-.3-1.5.2-.5.4-.9 1.2.1 1-.4.1-.4.5-.2.2-1 .6-.2.4-.8h1z" class="st0 SK"/><path d="M19.4 191.5l-.8-.2-2-1.1-1.5-1.5-.5-1-.4-2.1 1.5-1.2.3-.8.5-.6.8-.1.6-.5h2.2l.8 1 .6 1.2-.1.8.4.7v1l.8-.2-1.3 1.3-1.3 1.5-.1.8-.5 1z" class="st0 SL"/><path d="M4.6 172.2L3.4 170 2 169l1.2-.5 1.4-2 .7-1.5 1-.9 1.4.2 1.4-.6h1.6l1.3.9 1.9.8 1.7 2.1 1.9 2 .1 1.8.5 1.6 1 .8.2 1.1-.1.9-.4.2-1.5-.2-.2.3-.6.1-2-.7h-1.4l-5.3-.4-.8.3-.9-.1-1.5.5-.5-2.2 2.5.1.7-.4h.5l1-.7 1.2.6h1.2l1.2-.6-.6-.8-.9.5H10l-1.1-.7H8l-.6.7H4.6z" class="st0 SN"/><path d="M194.8 177.5l-.1-.8h-1.1l-1.3 1-1.5.3-1.3.4-.9.1-1.6.1-1 .5-1.4.2-2.5.9-3 .3-2.6.7h-1.4l-1.3-1.2-.5-1.2-.9-.5-1 1.5-.6 1 1 1.6 1 1.4 1.1 1 9.2 3.3h2.4l-7.9 8.4-3.7.1-2.5 2h-1.8l-.8.9-2.5 3.2v10.1l1.7 2.3.6-.7.7-1.5 3.1-3.4 2.6-2.1 4.2-2.8 2.8-2.3 3.3-3.8 2.4-3.1 2.4-4.1 1.7-3.6 1.3-3.1.8-3 .6-1v-1.5l.3-1.6z" class="st0 SO"/><path d="M146.6 184v2.2l-.4.9-1.5.1-1 1.6 1.7.2 1.4 1.4.5 1.1 1.3.7 1.6 3-1.9 1.8-1.7 1.7-1.7 1.3h-2l-2.3.6-1.8-.6-1.1.8-2.5-1.9-.7-1.2-1.6.6-1.3-.2-.8.5-1.3-.3-1.7-2.3-.5-.9-2.1-1.1-.7-1.7-1.2-1.2-1.9-1.5v-.9l-1.5-1.1-1.9-1.1.9-.3 1-.5.7-2.5.8-1.3 2-.4.5.8 1.4 1.6.8.2 1-.5 2 .1.4.6h2.8l.1-.6 1.4-.5.3-.8 1.1-.6 2.4 1.6 1.4-.3 1.4-2 1.5-1.6-.2-1.7-.7-.8 1.7-.1.2-.6 1.3.2-.3 2.1.3 2.1 1.4 1.1.3 1v1.4l.7-.2z" class="st1 SS"/><path d="M160.2 111.7l-5.5 3.5-3.1-1.3h-.1l.4-.5V112l.7-1.8 1.5-1.3-.5-1.3-1.3-.2-.3-2.6.7-1.4.8-.8.8-.8.2-1.9.9.7 3.1-1 1.5.6h2.3l3.2-1.3 1.5.1 3.2-.5-1.4 2.2-1.5.9.3 2.5-1.1 4.1-6.3 3.5z" class="st0 SY"/><path d="M92.1 174.4l.3-1.3-1.8-.1v-1.9l-1.2-1.1 1.2-3.8 3.6-2.7.1-3.8 1.1-6 .6-1.3-1.2-1v-.9l-1-.8-.7-4.7 2.8-1.7 11.2 5.8 11.2 5.7.1 11.6-2.4-.2-1.3 2.1-.7 1.8.6.7-.9.9.3 1.2-.7 1.2-.3 1.1 1-.2.6 1.1v1.7l1 .8v.7l-1.8.5-1.4 1.1-2 3.1-2.6 1.3-2.7-.2-.8.3.3 1-1.5 1-1.2 1.1-3.5 1.1-.7-.6-.5-.1-.5.7-2.3.2.4-.8-.9-1.9-.4-1.2-1.2-.5-1.7-1.6.6-1.3 1.3.3.8-.2h1.6l-1.5-2.6.1-1.9-.2-1.9-1.2-1.8z" class="st0 TD"/><path d="M56.7 193.3l-2.2.6-.6-1-.8-1.8-.2-1.4.6-2.5-.7-1-.3-2.2v-2l-1.2-1.5.2-.9 2.5.1-.4 1.5.8.8 1 1 .1 1.4.6.6-.1 6.5.7 1.8z" class="st0 TG"/><path d="M78 121.8l-1.2-5.9-1.7-1.3v-.8l-2.3-2-.2-2.5 1.7-1.9.7-2.8-.4-3.3.6-1.8 3.1-1.4 2 .4-.3 1.8 2.4-1.3.2.7-1.4 1.7v1.6l1 .9-.4 3-1.9 1.7.5 1.8 1.5.1.7 1.6 1.1.5-.2 2.6-1.4.9-.9 1.1-1.9 1.3.3 1.4-.2 1.4-1.4.5z" class="st0 TN"/><path d="M154.9 83.7l4 1.4 3.3-.6 2.4.3 3.3-1.9 3-.2 2.7 1.8.5 1.3-.3 1.8 2.1.9 1.1 1.1-1.9 1 .9 4.1-.5 1.1 1.5 2.8-1.3.6-1-.9-3.3-.5-1.2.5-3.2.7-1.5-.1-3.2 1.3H160l-1.5-.7-3.1 1-.9-.7-.2 1.9-.8.8-.8.8-1-1.6 1.1-1.3-1.7.3-2.3-.8-1.9 2-4.3.4-2.3-1.9-3-.1-.7 1.4-1.9.4-2.7-1.9-3.1.1-1.7-3.5-2-2 1.4-2.8-1.8-1.7 3.1-3.5 4.3-.1 1.2-2.8 5.3.5 3.4-2.4 3.3-1.1 4.6.1 4.9 2.7zm-27.2 2.4l-2.3 2-.9-1.7v-.8l.7-.4.9-2.3-1.4-1 2.9-1.2 2.4.5.3 1.4 2.5 1.2-.5.9-3.3.2-1.3 1.2z" class="st0 TR"/><path d="M146.5 213.1l.5.3 10.2 5.7.2 1.6 4 2.8-1.3 3.4.2 1.6 1.8 1 .1.7-.8 1.7.2.9-.2 1.3 1 1.8 1.2 2.8 1 .6-2.2 1.6-3.1 1.1h-1.7l-1 .8-2 .1-.7.4-3.4-.8-2.1.2-.8-3.9-1-1.3-.6-.8-2.7-.5-1.6-.9-1.8-.5-1.1-.5-1.2-.7-1.5-3.6-1.6-1.6-.6-1.6.3-1.5-.5-2.6 1.2-.1 1-1 1.1-1.5.7-.6v-.9l-.6-.6-.2-1.1.8-.3.2-1.6-1.1-1.6 1-.3h8.7z" class="st0 TZ"/><path d="M140.6 39.6l1 .2.7-1 .8.2 2.9-.4 1.8 2.6-.7.9.2 1.4 2.2.2 1 1.9-.1.9L154 48l2.1-.7 1.7 2h1.6l4.1 1.4V52l-1.1 2.2.6 2.3-.4 1.4-2.7.3-1.4 1.2-.1 1.8-2.2.3-1.9 1.3-2.6.2-2.4 1.5-1.3 1 1.5 1.5 1.4 1 2.9-.2-.5 1.4-3.1.7-3.8 2.3-1.5-.8.6-1.8-3.1-1.2.5-.8 3.2-1.6-.4-.8-.5.4-.4-.2-4.4-1-.2-1.5-2.6.5-1 2.2-2.2 3-1.3-.7-1.3.6-1.2-.7.7-.4.5-1.4.8-1.3-.2-.7.6-.3.3.6 1.7.1.7-.3-.5-.4.2-.6-1-1-.4-1.7-1-.7.2-1.4-1.3-1.1-1.2-.2-2.1-1.3-1.9.4-.7.6h-1.2l-.7 1-2.1.4-1 .6-1.3-1h-1.8l-1.7-.5-1.2.9-.2-1.1-1.5-1.1.5-1.7.8-1.1.6.2-.7-1.9 2.5-3.6 1.4-.5.3-1.2-1.4-3.9 1.3-.2 1.5-1.2 2.2-.1 2.8.4 3.1 1.1 2.2.1 1 .6 1-.8.7 1 2.5-.2 1.1.4.2-2.3.9-1 2.8-.4z" class="st0 UA"/><path d="M140.8 213.3h-3.1l-1 .3-1.7.9-.7-.3v-2.1l.6-1.1.2-2.2.6-1.3 1.1-1.5 1.1-.7.9-1-1.1-.4.2-3.3 1.1-.8 1.8.6 2.3-.6h2l1.7-1.3 1.3 1.9.3 1.4 1.2 3.2-1 2-1.4 1.8-.8 1.1v3l-5.6.4z" class="st0 UG"/><path d="M200.3 163.4l-2 .8-.5 1.3-.1 1-2.8 1.2-4.5 1.4-2.5 2-1.2.2-.8-.2-1.6 1.2-1.8.5-2.3.1-.7.2-.6.8-.7.2-.4.7-1.4-.1-.9.4-1.9-.1-.7-1.7.1-1.6-.5-.9-.5-2.1-.8-1.2.6-.1-.3-1.3.3-.6-.1-1.3 1.2-.9-.3-1.2.8-1.4 1.1.8.8-.3 3.2-.1.5.3 2.7.3 1.1-.2.7 1 1.3-.5 2-3.1 2.6-1.3 8.1-1.1 2.2 4.8.6 2.1z" class="st0 YE"/></svg>
